<svg width="20" height="20" viewBox="0 0 20 20" fill="none" xmlns="http://www.w3.org/2000/svg">
<path d="M12.4995 15V15.625C12.4995 16.288 12.2361 16.9239 11.7672 17.3928C11.2984 17.8616 10.6625 18.125 9.99946 18.125C9.33642 18.125 8.70054 17.8616 8.23169 17.3928C7.76285 16.9239 7.49946 16.288 7.49946 15.625V15M16.7057 13.7277C15.7026 12.5 14.9944 11.875 14.9944 8.49023C14.9944 5.39063 13.4116 4.28633 12.1088 3.75C11.9358 3.67891 11.7729 3.51562 11.7202 3.33789C11.4916 2.56016 10.851 1.875 9.99946 1.875C9.1479 1.875 8.50688 2.56055 8.28071 3.33867C8.22798 3.51836 8.06509 3.67891 7.89204 3.75C6.58774 4.28711 5.00649 5.3875 5.00649 8.49023C5.00454 11.875 4.29634 12.5 3.29321 13.7277C2.87759 14.2363 3.24165 15 3.9686 15H16.0342C16.7573 15 17.119 14.234 16.7057 13.7277Z" stroke="#FEFEFE" stroke-width="1.5" stroke-linecap="round" stroke-linejoin="round"/>
</svg>
