<svg width="32" height="32" viewBox="0 0 32 32" fill="none" xmlns="http://www.w3.org/2000/svg">
<path d="M23.4645 0.0165364C25.7661 -0.127315 28.0358 0.671858 29.746 2.23824C31.3124 3.94847 32.1116 6.21812 31.9837 8.53572V23.4643C32.1276 25.7819 31.3124 28.0515 29.762 29.7618C28.0518 31.3281 25.7661 32.1273 23.4645 31.9835H8.53579C6.21817 32.1273 3.9485 31.3281 2.23826 29.7618C0.671864 28.0515 -0.127316 25.7819 0.0165365 23.4643V8.53572C-0.127316 6.21812 0.671864 3.94847 2.23826 2.23824C3.9485 0.671858 6.21817 -0.127315 8.53579 0.0165364H23.4645ZM23.0489 7.32098C22.0579 6.33 20.4596 6.33 19.4686 7.32098L18.3977 8.40786C18.2416 8.56395 18.2379 8.82675 18.3867 8.98783C18.3939 8.99558 18.4014 9.00294 18.4089 9.01037C18.4226 9.024 18.4486 9.04982 18.4849 9.08594L18.878 9.47694C19.1055 9.70321 19.3893 9.98578 19.6744 10.2699L20.6409 11.236C20.8426 11.4386 20.9764 11.5744 20.987 11.5886C21.1628 11.7804 21.2747 12.0361 21.2747 12.3238C21.2747 12.8992 20.8112 13.3787 20.2198 13.3787C19.9481 13.3787 19.6923 13.2668 19.5165 13.091L16.8473 10.4378C16.7194 10.3099 16.4956 10.3099 16.3678 10.4378L8.74358 18.0619C8.21612 18.5893 7.91243 19.2926 7.89645 20.0438L7.80055 23.8319C7.80055 24.0397 7.86448 24.2315 8.00833 24.3753C8.15219 24.5192 8.34399 24.5991 8.55177 24.5991H12.3079C13.0751 24.5991 13.8104 24.2954 14.3698 23.752L25.1268 12.9631C26.1018 11.9722 26.1018 10.3738 25.1268 9.39883L23.0489 7.32098Z" fill="#2245AC"/>
</svg>
