<svg width="32" height="32" viewBox="0 0 32 32" fill="none" xmlns="http://www.w3.org/2000/svg">
<g clip-path="url(#clip0_425_6095)">
<path fill-rule="evenodd" clip-rule="evenodd" d="M5.38182 0C2.48133 0 0 2.42002 0 5.33333V8.92308C0 12.0356 2.51884 14.2021 5.26928 14.396C5.30673 14.3987 5.34427 14.4 5.38182 14.4H9.01818C11.9187 14.4 14.4 11.98 14.4 9.06667V5.33333C14.4 2.50213 12.1451 0 9.16364 0H5.38182ZM22.9818 0C20.0813 0 17.6 2.42002 17.6 5.33333V9.06667C17.6 11.98 20.0813 14.4 22.9818 14.4H26.6182C29.5187 14.4 32 11.98 32 9.06667V5.33333C32 2.50213 29.7451 0 26.7636 0H22.9818ZM5.38182 17.6C2.48133 17.6 0 20.02 0 22.9333V26.6667C0 29.6724 2.55958 31.805 5.26928 31.996C5.30673 31.9987 5.34427 32 5.38182 32H9.01818C11.9187 32 14.4 29.58 14.4 26.6667V22.9333C14.4 20.1021 12.1451 17.6 9.16364 17.6H5.38182ZM22.9818 17.6C20.0813 17.6 17.6 20.02 17.6 22.9333V26.6667C17.6 29.58 20.0813 32 22.9818 32H26.6182C29.5187 32 32 29.58 32 26.6667V22.9333C32 20.1021 29.7451 17.6 26.7636 17.6H22.9818Z" fill="#2245AC"/>
</g>
<defs>
<clipPath id="clip0_425_6095">
<rect width="32" height="32" fill="white"/>
</clipPath>
</defs>
</svg>
