<svg width="20" height="21" viewBox="0 0 20 21" fill="none" xmlns="http://www.w3.org/2000/svg">
<path d="M1.75 8.77141C1.75 7.65131 1.75 7.09125 1.96799 6.66343C2.15973 6.28711 2.46569 5.98114 2.84202 5.7894C3.26984 5.57141 3.82989 5.57141 4.95 5.57141H6.75L7.30777 4.45587C7.4683 4.13481 7.54857 3.97428 7.66831 3.85699C7.77421 3.75328 7.90184 3.6744 8.04196 3.62607C8.20042 3.57141 8.3799 3.57141 8.73885 3.57141H11.2611C11.6201 3.57141 11.7996 3.57141 11.958 3.62607C12.0982 3.6744 12.2258 3.75328 12.3317 3.85699C12.4514 3.97428 12.5317 4.13481 12.6922 4.45587L13.25 5.57141H15.05C16.1701 5.57141 16.7302 5.57141 17.158 5.7894C17.5343 5.98114 17.8403 6.28711 18.032 6.66343C18.25 7.09125 18.25 7.65131 18.25 8.77141V14.8714C18.25 15.9915 18.25 16.5516 18.032 16.9794C17.8403 17.3557 17.5343 17.6617 17.158 17.8534C16.7302 18.0714 16.1701 18.0714 15.05 18.0714H4.95C3.82989 18.0714 3.26984 18.0714 2.84202 17.8534C2.46569 17.6617 2.15973 17.3557 1.96799 16.9794C1.75 16.5516 1.75 15.9915 1.75 14.8714V8.77141Z" stroke="black" stroke-width="1.5" stroke-linejoin="round"/>
<path d="M13.25 11.8214C13.25 13.6163 11.7949 15.0714 10 15.0714C8.20507 15.0714 6.75 13.6163 6.75 11.8214C6.75 10.0265 8.20507 8.57141 10 8.57141C11.7949 8.57141 13.25 10.0265 13.25 11.8214Z" stroke="black" stroke-width="1.5" stroke-linejoin="round"/>
</svg>
