<svg width="33" height="33" viewBox="0 0 33 33" fill="none" xmlns="http://www.w3.org/2000/svg">
<path d="M23.9811 0.0330769C26.2827 -0.110774 28.5524 0.688398 30.2626 2.25478C31.829 3.96501 32.6282 6.23466 32.5003 8.55227V23.4808C32.6442 25.7984 31.829 28.0681 30.2786 29.7783C28.5684 31.3447 26.2827 32.1439 23.9811 32H9.05239C6.73477 32.1439 4.4651 31.3447 2.75486 29.7783C1.18847 28.0681 0.389286 25.7984 0.533138 23.4808V8.55227C0.389286 6.23466 1.18847 3.96501 2.75486 2.25478C4.4651 0.688398 6.73477 -0.110774 9.05239 0.0330769H23.9811Z" fill="#2245AC"/>
<path d="M25.1629 16.5C25.1629 21.2842 21.2846 25.1625 16.5004 25.1625M25.1629 16.5C25.1629 11.7159 21.2846 7.83752 16.5004 7.83752M25.1629 16.5H7.83789M16.5004 25.1625C11.7162 25.1625 7.83789 21.2842 7.83789 16.5M16.5004 25.1625C18.3851 25.1625 19.9129 21.2842 19.9129 16.5C19.9129 11.7159 18.3851 7.83752 16.5004 7.83752M16.5004 25.1625C14.6157 25.1625 13.0879 21.2842 13.0879 16.5C13.0879 11.7159 14.6157 7.83752 16.5004 7.83752M7.83789 16.5C7.83789 11.7159 11.7162 7.83752 16.5004 7.83752" stroke="white" stroke-width="1.5" stroke-linejoin="round"/>
</svg>
