<svg width="20" height="20" viewBox="0 0 20 20" fill="none" xmlns="http://www.w3.org/2000/svg">
<path d="M12.4998 15V15.625C12.4998 16.288 12.2364 16.9239 11.7676 17.3928C11.2988 17.8616 10.6629 18.125 9.99983 18.125C9.33679 18.125 8.7009 17.8616 8.23206 17.3928C7.76322 16.9239 7.49983 16.288 7.49983 15.625V15M16.7061 13.7277C15.703 12.5 14.9947 11.875 14.9947 8.49023C14.9947 5.39063 13.4119 4.28633 12.1092 3.75C11.9362 3.67891 11.7733 3.51562 11.7205 3.33789C11.492 2.56016 10.8514 1.875 9.99983 1.875C9.14827 1.875 8.50725 2.56055 8.28108 3.33867C8.22834 3.51836 8.06545 3.67891 7.89241 3.75C6.58811 4.28711 5.00686 5.3875 5.00686 8.49023C5.0049 11.875 4.2967 12.5 3.29358 13.7277C2.87795 14.2363 3.24201 15 3.96897 15H16.0346C16.7576 15 17.1194 14.234 16.7061 13.7277Z" stroke="#D9D9D9" stroke-width="1.5" stroke-linecap="round" stroke-linejoin="round"/>
</svg>
