<svg width="24" height="24" viewBox="0 0 24 24" fill="none" xmlns="http://www.w3.org/2000/svg">
<path fill-rule="evenodd" clip-rule="evenodd" d="M11.3876 19.4035L7.12576 21.7576C6.5501 22.0756 5.83808 21.843 5.53544 21.2382C5.41492 20.9974 5.37333 20.7215 5.41711 20.4533L6.23105 15.4673C6.29657 15.0659 6.16992 14.6564 5.89237 14.3722L2.44449 10.841C1.97877 10.3641 1.96924 9.58075 2.42321 9.09143C2.60398 8.89658 2.84085 8.76978 3.09714 8.73065L7.86199 8.0032C8.24555 7.94464 8.57712 7.69154 8.74866 7.32636L10.8796 2.78995C11.1674 2.17719 11.8735 1.9256 12.4567 2.22802C12.689 2.34844 12.877 2.54594 12.9916 2.78995L15.1225 7.32636C15.294 7.69154 15.6256 7.94464 16.0091 8.0032L20.774 8.73065C21.4176 8.82891 21.8635 9.45675 21.77 10.133C21.7328 10.4022 21.6121 10.6511 21.4266 10.841L17.9788 14.3722C17.7012 14.6564 17.5746 15.0659 17.6401 15.4673L18.5002 20.4533C18.6101 21.1268 18.1334 21.7664 17.4924 21.8819C17.2372 21.9279 16.9746 21.8842 16.7454 21.7576L12.4836 19.4035C12.1405 19.214 11.7306 19.214 11.3876 19.4035Z" fill="#FFEC86" stroke="black" stroke-width="1.5" stroke-linejoin="round"/>
</svg>
