<svg width="25" height="24" viewBox="0 0 25 24" fill="none" xmlns="http://www.w3.org/2000/svg">
<path fill-rule="evenodd" clip-rule="evenodd" d="M11.6698 19.4035L7.40799 21.7576C6.83232 22.0756 6.12031 21.843 5.81766 21.2382C5.69715 20.9974 5.65556 20.7215 5.69934 20.4533L6.51327 15.4673C6.57879 15.0659 6.45214 14.6564 6.1746 14.3722L2.72672 10.841C2.26099 10.3641 2.25146 9.58075 2.70543 9.09143C2.88621 8.89658 3.12307 8.76978 3.37936 8.73065L8.14422 8.0032C8.52777 7.94464 8.85935 7.69154 9.03088 7.32636L11.1618 2.78995C11.4496 2.17719 12.1557 1.9256 12.739 2.22802C12.9712 2.34844 13.1592 2.54594 13.2738 2.78995L15.4047 7.32636C15.5762 7.69154 15.9078 7.94464 16.2914 8.0032L21.0562 8.73065C21.6998 8.82891 22.1458 9.45675 22.0523 10.133C22.015 10.4022 21.8943 10.6511 21.7089 10.841L18.261 14.3722C17.9834 14.6564 17.8568 15.0659 17.9223 15.4673L18.7824 20.4533C18.8923 21.1268 18.4157 21.7664 17.7747 21.8819C17.5194 21.9279 17.2568 21.8842 17.0276 21.7576L12.7658 19.4035C12.4227 19.214 12.0129 19.214 11.6698 19.4035Z" stroke="black" stroke-width="1.5" stroke-linejoin="round"/>
</svg>
