<svg width="18" height="21" viewBox="0 0 18 21" fill="none" xmlns="http://www.w3.org/2000/svg">
<path fill-rule="evenodd" clip-rule="evenodd" d="M8.99958 4.5C10.6206 4.50062 12.1977 5.02639 13.4948 5.99856C14.7919 6.97072 15.7391 8.33696 16.1945 9.89262C16.65 11.4483 16.5892 13.1096 16.0213 14.6278C15.4533 16.1461 14.4088 17.4394 13.0441 18.3142C11.6794 19.1889 10.0681 19.598 8.45139 19.4801C6.83472 19.3623 5.29973 18.7238 4.07635 17.6604C2.85297 16.597 2.00705 15.1658 1.66529 13.5813C1.32353 11.9968 1.50432 10.3442 2.18058 8.871C2.25419 8.69189 2.25567 8.49126 2.18471 8.31108C2.11376 8.13091 1.97586 7.98516 1.79989 7.90435C1.62392 7.82353 1.42351 7.81391 1.2406 7.8775C1.0577 7.94109 0.906474 8.07295 0.818584 8.2455C0.00709915 10.0134 -0.209764 11.9966 0.200479 13.8981C0.610722 15.7996 1.62599 17.5169 3.0942 18.793C4.56241 20.069 6.40453 20.835 8.34462 20.9762C10.2847 21.1175 12.2183 20.6263 13.8559 19.5764C15.4934 18.5264 16.7467 16.9742 17.428 15.1522C18.1093 13.3301 18.1819 11.3364 17.635 9.46967C17.0881 7.6029 15.9511 5.96357 14.3944 4.79723C12.8376 3.63089 10.9448 3.00033 8.99958 3V4.5Z" fill="#8C8C8C"/>
<path d="M8.99979 6.69901V0.801007C8.99977 0.729752 8.97944 0.659979 8.94119 0.599859C8.90294 0.539739 8.84836 0.49176 8.78383 0.461541C8.7193 0.431322 8.64749 0.420114 8.57682 0.429228C8.50615 0.438343 8.43954 0.467404 8.38479 0.513007L4.84479 3.46201C4.80259 3.4972 4.76864 3.54124 4.74534 3.59101C4.72204 3.64078 4.70996 3.69506 4.70996 3.75001C4.70996 3.80496 4.72204 3.85924 4.74534 3.90901C4.76864 3.95877 4.80259 4.00281 4.84479 4.03801L8.38479 6.98701C8.43954 7.03261 8.50615 7.06167 8.57682 7.07079C8.64749 7.0799 8.7193 7.06869 8.78383 7.03847C8.84836 7.00825 8.90294 6.96028 8.94119 6.90016C8.97944 6.84004 8.99977 6.77026 8.99979 6.69901Z" fill="#8C8C8C"/>
</svg>
