<svg width="25" height="24" viewBox="0 0 25 24" fill="none" xmlns="http://www.w3.org/2000/svg">
<g clip-path="url(#clip0_381_6378)">
<path d="M12.4999 7.13098C11.8605 7.13098 11.2273 7.25692 10.6366 7.50161C10.0458 7.7463 9.50909 8.10495 9.05696 8.55708C8.60483 9.00921 8.24618 9.54596 8.00149 10.1367C7.7568 10.7274 7.63086 11.3606 7.63086 12C7.63086 12.6394 7.7568 13.2725 8.00149 13.8633C8.24618 14.454 8.60483 14.9908 9.05696 15.4429C9.50909 15.895 10.0458 16.2537 10.6366 16.4984C11.2273 16.743 11.8605 16.869 12.4999 16.869C13.7912 16.869 15.0296 16.356 15.9428 15.4429C16.8559 14.5298 17.3689 13.2913 17.3689 12C17.3689 10.7086 16.8559 9.47019 15.9428 8.55708C15.0296 7.64396 13.7912 7.13098 12.4999 7.13098ZM9.13086 12C9.13086 11.1065 9.48581 10.2495 10.1176 9.61774C10.7494 8.98593 11.6063 8.63098 12.4999 8.63098C13.3934 8.63098 14.2503 8.98593 14.8821 9.61774C15.5139 10.2495 15.8689 11.1065 15.8689 12C15.8689 12.8935 15.5139 13.7504 14.8821 14.3822C14.2503 15.014 13.3934 15.369 12.4999 15.369C11.6063 15.369 10.7494 15.014 10.1176 14.3822C9.48581 13.7504 9.13086 12.8935 9.13086 12Z" fill="#8C8C8C"/>
<path d="M15.1942 2.01448C14.4037 -0.670518 10.5967 -0.670518 9.80623 2.01448L9.66523 2.49298C9.61002 2.68041 9.51357 2.85311 9.38295 2.99842C9.25233 3.14373 9.09085 3.25797 8.91034 3.33276C8.72983 3.40755 8.53487 3.441 8.33976 3.43066C8.14464 3.42032 7.95431 3.36644 7.78273 3.27298L7.34473 3.03298C4.88473 1.69498 2.19523 4.38598 3.53473 6.84448L3.77323 7.28248C3.86668 7.45407 3.92056 7.6444 3.9309 7.83951C3.94125 8.03463 3.9078 8.22959 3.833 8.41009C3.75821 8.5906 3.64397 8.75209 3.49866 8.88271C3.35335 9.01333 3.18065 9.10978 2.99323 9.16498L2.51473 9.30598C-0.170273 10.0965 -0.170273 13.9035 2.51473 14.694L2.99323 14.835C3.18065 14.8902 3.35335 14.9866 3.49866 15.1173C3.64397 15.2479 3.75821 15.4094 3.833 15.5899C3.9078 15.7704 3.94125 15.9653 3.9309 16.1604C3.92056 16.3556 3.86668 16.5459 3.77323 16.7175L3.53323 17.1555C2.19523 19.6155 4.88473 22.3065 7.34473 20.9655L7.78273 20.727C7.95431 20.6335 8.14464 20.5796 8.33976 20.5693C8.53487 20.559 8.72983 20.5924 8.91034 20.6672C9.09085 20.742 9.25233 20.8562 9.38295 21.0015C9.51357 21.1469 9.61002 21.3196 9.66523 21.507L9.80623 21.9855C10.5967 24.6705 14.4037 24.6705 15.1942 21.9855L15.3352 21.507C15.3904 21.3196 15.4869 21.1469 15.6175 21.0015C15.7481 20.8562 15.9096 20.742 16.0901 20.6672C16.2706 20.5924 16.4656 20.559 16.6607 20.5693C16.8558 20.5796 17.0461 20.6335 17.2177 20.727L17.6557 20.967C20.1157 22.3065 22.8067 19.614 21.4657 17.1555L21.2272 16.7175C21.1338 16.5459 21.0799 16.3556 21.0695 16.1604C21.0592 15.9653 21.0927 15.7704 21.1674 15.5899C21.2422 15.4094 21.3565 15.2479 21.5018 15.1173C21.6471 14.9866 21.8198 14.8902 22.0072 14.835L22.4857 14.694C25.1707 13.9035 25.1707 10.0965 22.4857 9.30598L22.0072 9.16498C21.8198 9.10978 21.6471 9.01333 21.5018 8.88271C21.3565 8.75209 21.2422 8.5906 21.1674 8.41009C21.0927 8.22959 21.0592 8.03463 21.0695 7.83951C21.0799 7.6444 21.1338 7.45407 21.2272 7.28248L21.4672 6.84448C22.8067 4.38448 20.1142 1.69498 17.6557 3.03448L17.2177 3.27298C17.0461 3.36644 16.8558 3.42032 16.6607 3.43066C16.4656 3.441 16.2706 3.40755 16.0901 3.33276C15.9096 3.25797 15.7481 3.14373 15.6175 2.99842C15.4869 2.85311 15.3904 2.68041 15.3352 2.49298L15.1942 2.01448ZM11.2447 2.43898C11.6137 1.18648 13.3867 1.18648 13.7557 2.43898L13.8967 2.91748C14.0153 3.31961 14.2223 3.69011 14.5026 4.00183C14.783 4.31355 15.1295 4.55858 15.5168 4.71895C15.9042 4.87933 16.3225 4.95098 16.7411 4.92867C17.1598 4.90635 17.5681 4.79063 17.9362 4.58998L18.3727 4.34998C19.5187 3.72748 20.7727 4.97998 20.1487 6.12748L19.9102 6.56548C19.7099 6.93362 19.5944 7.34192 19.5724 7.76046C19.5503 8.17901 19.6221 8.59719 19.7826 8.98436C19.9432 9.37153 20.1883 9.71789 20.5 9.99805C20.8117 10.2782 21.1822 10.4851 21.5842 10.6035L22.0612 10.7445C23.3137 11.1135 23.3137 12.8865 22.0612 13.2555L21.5827 13.3965C21.1806 13.515 20.8101 13.722 20.4984 14.0024C20.1867 14.2827 19.9416 14.6293 19.7813 15.0166C19.6209 15.4039 19.5492 15.8223 19.5715 16.2409C19.5939 16.6595 19.7096 17.0679 19.9102 17.436L20.1502 17.8725C20.7727 19.0185 19.5202 20.2725 18.3727 19.6485L17.9362 19.41C17.568 19.2094 17.1596 19.0937 16.7409 19.0715C16.3221 19.0492 15.9038 19.121 15.5164 19.2816C15.129 19.4421 14.7825 19.6873 14.5022 19.9992C14.222 20.3111 14.0151 20.6817 13.8967 21.084L13.7557 21.561C13.3867 22.8135 11.6137 22.8135 11.2447 21.561L11.1037 21.0825C10.9851 20.6806 10.7782 20.3103 10.4979 19.9987C10.2177 19.6871 9.87131 19.4422 9.48416 19.2819C9.09701 19.1215 8.67889 19.0498 8.26043 19.072C7.84197 19.0941 7.43377 19.2096 7.06573 19.41L6.62773 19.65C5.48173 20.2725 4.22773 19.02 4.85173 17.8725L5.09023 17.436C5.29115 17.0678 5.4071 16.6593 5.42957 16.2405C5.45203 15.8217 5.38044 15.4032 5.22004 15.0156C5.05965 14.6281 4.81452 14.2814 4.50264 14.001C4.19077 13.7205 3.82006 13.5135 3.41773 13.395L2.93923 13.254C1.68673 12.885 1.68673 11.112 2.93923 10.743L3.41773 10.602C3.81944 10.4833 4.18954 10.2764 4.50094 9.99626C4.81234 9.71614 5.05717 9.36992 5.21751 8.98296C5.37784 8.59601 5.44962 8.17809 5.4276 7.75981C5.40558 7.34153 5.29031 6.93346 5.09023 6.56548L4.85023 6.12748C4.22773 4.98148 5.48023 3.72748 6.62773 4.35148L7.06573 4.58998C7.43377 4.79035 7.84197 4.90584 8.26043 4.92801C8.67889 4.95018 9.09701 4.87846 9.48416 4.71811C9.87131 4.55775 10.2177 4.31282 10.4979 4.00126C10.7782 3.6897 10.9851 3.3194 11.1037 2.91748L11.2447 2.43898Z" fill="#8C8C8C"/>
</g>
<defs>
<clipPath id="clip0_381_6378">
<rect width="24" height="24" fill="white" transform="translate(0.5)"/>
</clipPath>
</defs>
</svg>
